<svg width="21" height="20" viewBox="0 0 21 20" fill="none" xmlns="http://www.w3.org/2000/svg">
<path d="M3.84984 4.97502C2.7915 6.37502 2.1665 8.11669 2.1665 10C2.1665 14.6 5.89984 18.3334 10.4998 18.3334C15.0998 18.3334 18.8332 14.6 18.8332 10C18.8332 5.40002 15.0998 1.66669 10.4998 1.66669" stroke="#2CA87F" stroke-width="1.5" stroke-linecap="round" stroke-linejoin="round"/>
<path opacity="0.34" d="M4.6665 10C4.6665 13.225 7.27484 15.8334 10.4998 15.8334C13.7248 15.8334 16.3332 13.225 16.3332 10C16.3332 6.77502 13.7248 4.16669 10.4998 4.16669" stroke="#2CA87F" stroke-width="1.5" stroke-linecap="round" stroke-linejoin="round"/>
<path opacity="0.34" d="M10.5 13.3334C12.3417 13.3334 13.8333 11.8417 13.8333 10C13.8333 8.15835 12.3417 6.66669 10.5 6.66669" stroke="#2CA87F" stroke-width="1.5" stroke-linecap="round" stroke-linejoin="round"/>
</svg>
