<svg width="400" height="48" viewBox="0 0 400 48" fill="none" xmlns="http://www.w3.org/2000/svg">
<path fill-rule="evenodd" clip-rule="evenodd" d="M143.5 11.6213C143.5 10.5869 143.5 10.0698 143.701 9.65348C143.877 9.28664 144.162 8.97572 144.519 8.75777C144.926 8.51044 145.466 8.43703 146.545 8.29021L161.947 6.1962C163.345 6.00613 164.044 5.91109 164.587 6.11175C165.064 6.2879 165.462 6.61494 165.713 7.03745C166 7.51875 166 8.18826 166 9.52727V38.4727C166 39.8117 166 40.4812 165.713 40.9626C165.462 41.3851 165.064 41.7121 164.587 41.8882C164.044 42.0889 163.345 41.9939 161.947 41.8038L146.545 39.7098C145.466 39.563 144.926 39.4896 144.519 39.2422C144.162 39.0243 143.877 38.7134 143.701 38.3465C143.5 37.9302 143.5 37.4131 143.5 36.3787V11.6213ZM160 21.3809C160 21.0659 160 20.9084 160.053 20.7839C160.099 20.6743 160.174 20.5827 160.267 20.5208C160.373 20.4506 160.514 20.4363 160.794 20.4078L162.048 20.2801C162.378 20.2465 162.543 20.2297 162.671 20.2914C162.783 20.3455 162.875 20.4401 162.934 20.56C163 20.6965 163 20.8821 163 21.2532V26.7468C163 27.1179 163 27.3035 162.934 27.44C162.875 27.5599 162.783 27.6545 162.671 27.7086C162.543 27.7703 162.378 27.7535 162.048 27.7199L160.794 27.5922C160.514 27.5637 160.373 27.5494 160.267 27.4792C160.174 27.4173 160.099 27.3257 160.053 27.2161C160 27.0916 160 26.9341 160 26.6191V21.3809ZM170.233 9.75H168.25V39H170.233C171.377 39 171.948 39 172.385 38.7768C172.769 38.5805 173.082 38.2673 173.277 37.882C173.5 37.4441 173.5 36.8707 173.5 35.724V13.026C173.5 11.8793 173.5 11.3059 173.277 10.868C173.082 10.4827 172.769 10.1695 172.385 9.97316C171.948 9.75 171.377 9.75 170.233 9.75Z" fill="url(#paint0_linear_2596_103)"/>
<path d="M206.147 33.6005C204.606 33.6005 203.275 33.2803 202.155 32.6398C201.034 31.9994 200.173 31.1087 199.573 29.9679C198.972 28.8071 198.672 27.4661 198.672 25.945C198.672 24.3839 198.982 23.0329 199.603 21.8921C200.223 20.7512 201.094 19.8606 202.215 19.2201C203.355 18.5797 204.686 18.2594 206.207 18.2594C207.749 18.2594 209.07 18.5797 210.17 19.2201C211.291 19.8606 212.162 20.7512 212.782 21.8921C213.403 23.0329 213.713 24.3738 213.713 25.915C213.713 27.4361 213.393 28.777 212.752 29.9379C212.132 31.0987 211.261 31.9994 210.14 32.6398C209.019 33.2603 207.689 33.5805 206.147 33.6005ZM206.177 30.6884C207.018 30.6884 207.739 30.4783 208.339 30.058C208.939 29.6377 209.4 29.0673 209.72 28.3467C210.06 27.6262 210.23 26.8156 210.23 25.915C210.23 24.9943 210.07 24.1737 209.75 23.4532C209.43 22.7327 208.969 22.1723 208.369 21.772C207.769 21.3517 207.048 21.1415 206.207 21.1415C205.407 21.1415 204.696 21.3517 204.076 21.772C203.455 22.1923 202.975 22.7627 202.635 23.4832C202.315 24.2037 202.145 25.0143 202.124 25.915C202.124 26.8356 202.285 27.6562 202.605 28.3768C202.925 29.0973 203.395 29.6677 204.016 30.088C204.636 30.4883 205.357 30.6884 206.177 30.6884Z" fill="#191C1D"/>
<path d="M229.436 18.8063C229.436 18.7198 229.366 18.6497 229.28 18.6497H226.201C226.114 18.6497 226.044 18.7198 226.044 18.8063V34.1709C226.044 35.1917 225.664 35.8256 224.903 36.386C224.163 36.9465 223.33 37.1296 222.149 37.1497C221.328 37.1296 220.558 37.0566 219.878 36.8364C219.24 36.6487 218.541 36.3728 217.813 36.009C217.733 35.9694 217.637 36.0023 217.599 36.0826L216.492 38.4417C216.46 38.5099 216.481 38.5914 216.543 38.6337C216.881 38.8636 217.276 39.0689 217.728 39.2497C218.228 39.4499 218.739 39.61 219.259 39.7301C219.799 39.8702 220.358 39.9871 220.838 40.0471C221.339 40.1071 221.811 40.1153 222.111 40.1153C223.632 40.1153 224.933 39.8751 226.014 39.3947C227.115 38.9144 227.955 38.2339 228.536 37.3533C229.136 36.4726 229.436 35.4219 229.436 34.201V18.8063ZM226.985 28.7504C226.94 28.6419 226.795 28.6208 226.717 28.7097C226.128 29.3873 225.53 29.8673 224.963 30.1781C224.363 30.5183 223.672 30.6884 222.892 30.6884C222.091 30.6884 221.391 30.4883 220.79 30.088C220.21 29.6677 219.769 29.0973 219.469 28.3768C219.169 27.6562 219.019 26.8256 219.019 25.8849C219.019 24.9843 219.169 24.1837 219.469 23.4832C219.769 22.7627 220.21 22.1923 220.79 21.772C221.391 21.3517 222.101 21.1415 222.922 21.1415C223.682 21.1415 224.283 21.3016 224.903 21.6219C225.482 21.9115 226.099 22.5728 226.629 23.2636C226.703 23.3598 226.854 23.3419 226.902 23.2302L227.754 21.22C227.775 21.1711 227.769 21.115 227.739 21.0714C226.664 19.5287 224.846 18.2594 222.775 18.2594C221.274 18.2594 220.09 18.5797 218.989 19.2201C217.888 19.8606 217.038 20.7512 216.437 21.8921C215.857 23.0329 215.566 24.3638 215.566 25.8849C215.566 27.4461 215.857 28.8071 216.437 29.9679C217.017 31.1087 217.848 31.9994 218.929 32.6398C220.03 33.2803 221.331 33.6005 222.832 33.6005C223.392 33.6005 223.973 33.4905 224.573 33.2703C225.193 33.0702 225.794 32.7699 226.374 32.3696C226.93 31.9867 227.421 31.5304 227.848 31.0009C227.884 30.9565 227.892 30.896 227.869 30.8435L226.985 28.7504Z" fill="#191C1D"/>
<path d="M241.046 18.9264C241.046 18.8399 240.976 18.7698 240.889 18.7698H237.54C237.453 18.7698 237.383 18.6997 237.383 18.6132V14.5183C237.383 14.4318 237.313 14.3616 237.227 14.3616H234.177C234.091 14.3616 234.021 14.4318 234.021 14.5183V18.6132C234.021 18.6997 233.951 18.7698 233.864 18.7698H231.824C231.737 18.7698 231.667 18.8409 231.668 18.9281L231.694 21.4669C231.695 21.5527 231.765 21.6219 231.851 21.6219H233.864C233.951 21.6219 234.021 21.692 234.021 21.7785V28.8571C234.021 29.9179 234.231 30.8185 234.651 31.5591C235.092 32.2796 235.692 32.83 236.453 33.2103C237.213 33.5905 238.134 33.7807 239.215 33.7807C239.515 33.7807 239.835 33.7406 240.175 33.6606C240.535 33.5805 240.884 33.4963 241.184 33.3762C241.452 33.2756 241.974 33.0136 242.24 32.8593C242.311 32.8182 242.333 32.7287 242.293 32.6574L241.054 30.4733C241.015 30.4039 240.931 30.375 240.856 30.4033C240.656 30.4797 240.449 30.5425 240.235 30.5919C239.975 30.6519 239.715 30.6819 239.455 30.6819C238.754 30.6819 238.234 30.6084 237.894 30.148C237.553 29.6677 237.383 29.0572 237.383 28.3167V21.7785C237.383 21.692 237.453 21.6219 237.54 21.6219H240.889C240.976 21.6219 241.046 21.5517 241.046 21.4652V18.9264Z" fill="#191C1D"/>
<path d="M249.935 33.5931C248.393 33.5931 247.062 33.2728 245.942 32.6324C244.821 31.9919 243.96 31.1013 243.36 29.9604C242.759 28.7996 242.459 27.4586 242.459 25.9375C242.459 24.3764 242.769 23.0254 243.39 21.8846C244.01 20.7437 244.881 19.8531 246.002 19.2126C247.142 18.5722 248.473 18.2519 249.995 18.2519C251.536 18.2519 252.857 18.5722 253.957 19.2126C255.078 19.8531 255.949 20.7437 256.569 21.8846C257.19 23.0254 257.5 24.3664 257.5 25.9075C257.5 27.4286 257.18 28.7696 256.539 29.9304C255.919 31.0912 255.048 31.9919 253.927 32.6324C252.807 33.2528 251.476 33.573 249.935 33.5931ZM249.965 30.6809C250.805 30.6809 251.526 30.4708 252.126 30.0505C252.727 29.6302 253.187 29.0598 253.507 28.3393C253.847 27.6187 254.017 26.8081 254.017 25.9075C254.017 24.9868 253.857 24.1662 253.537 23.4457C253.217 22.7252 252.757 22.1648 252.156 21.7645C251.556 21.3442 250.835 21.134 249.995 21.134C249.194 21.134 248.483 21.3442 247.863 21.7645C247.243 22.1848 246.762 22.7552 246.422 23.4757C246.102 24.1962 245.932 25.0068 245.912 25.9075C245.912 26.8282 246.072 27.6488 246.392 28.3693C246.712 29.0898 247.183 29.6602 247.803 30.0805C248.423 30.4808 249.144 30.6809 249.965 30.6809Z" fill="#191C1D"/>
<path d="M197.248 30.5683C197.248 30.4818 197.177 30.4117 197.091 30.4117H188.989C188.903 30.4117 188.832 30.3416 188.832 30.2551V14.4852C188.832 14.3987 188.762 14.3286 188.676 14.3286H185.657C185.57 14.3286 185.5 14.3987 185.5 14.4852V33.4439C185.5 33.5304 185.57 33.6005 185.657 33.6005H197.091C197.177 33.6005 197.248 33.5304 197.248 33.4439V30.5683Z" fill="#191C1D"/>
<defs>
<linearGradient id="paint0_linear_2596_103" x1="134.214" y1="30.8965" x2="171.167" y2="15.7903" gradientUnits="userSpaceOnUse">
<stop stop-color="#930006"/>
<stop offset="1" stop-color="#191C1D"/>
</linearGradient>
</defs>
</svg>
